<svg width="214" height="28" viewBox="0 0 214 28" fill="none" xmlns="http://www.w3.org/2000/svg">
<g clip-path="url(#clip0_289:1039)">
<path d="M23.9379 8.42253C24.7403 8.42253 25.3421 7.82092 25.3421 7.01876C25.3421 6.21661 24.7403 5.61499 23.9379 5.61499C23.1355 5.61499 22.5337 6.28345 22.5337 7.01876C22.5337 7.75407 23.2024 8.42253 23.9379 8.42253Z" fill="#CD4400"/>
<path d="M2.87524 13.9708C2.87524 8.28883 7.22153 3.6096 12.8383 3.07483V0.200439C5.61675 0.735209 0 6.68452 0 13.9708C0 21.257 5.61675 27.2063 12.7714 27.7411V24.8667C7.22153 24.3319 2.87524 19.6527 2.87524 13.9708Z" fill="#368729"/>
<path d="M12.8384 5.08032C11.9691 5.14717 11.1667 5.41455 10.3643 5.68194C7.0879 7.01886 4.81445 10.2275 4.81445 13.9709C4.81445 17.7143 7.0879 20.9229 10.3643 22.2598C11.1667 22.594 11.9691 22.7946 12.8384 22.8614V5.08032ZM10.3643 19.2517C8.62581 18.1153 7.48909 16.1768 7.48909 13.9709C7.48909 11.7649 8.62581 9.8264 10.3643 8.69002V19.2517Z" fill="#368729"/>
<path d="M24.6734 13.9709C24.6734 17.5806 22.9349 20.7892 20.2603 22.7277H24.3391C26.3451 20.3213 27.4818 17.2464 27.4818 13.9709C27.4818 12.4334 27.1475 10.027 26.3451 8.4895L23.7373 9.62589C24.4059 10.9628 24.6734 12.4334 24.6734 13.9709Z" fill="#368729"/>
<path d="M17.1176 5.74867V3.54275V0.601517C16.3152 0.400978 15.5128 0.267286 14.6436 0.200439V22.8613C15.5128 22.7945 16.3152 22.5271 17.1176 22.2597C20.394 20.9228 22.6675 17.7141 22.6675 13.9708C22.6675 10.2942 20.3272 7.0856 17.1176 5.74867ZM17.1176 19.2516V8.68991C18.8561 9.82629 19.9928 11.7648 19.9928 13.9708C19.9928 16.1767 18.8561 18.1821 17.1176 19.2516Z" fill="#368729"/>
<path fill-rule="evenodd" clip-rule="evenodd" d="M94.883 0H22.1328C27.2815 2.47331 30.8923 7.75416 30.8923 13.8372C30.8923 19.9202 27.2815 25.201 22.1328 27.6743H94.883V0ZM43.7974 21.725C39.2505 21.725 36.5758 18.7838 36.5758 13.6366C36.5758 8.42263 39.2505 5.54824 44.0648 5.54824C48.0099 5.54824 50.3502 7.55363 50.6177 11.0296H47.475C47.2075 9.29163 46.0708 8.35578 44.0648 8.35578C41.2565 8.35578 39.7854 10.2275 39.7854 13.6366C39.7854 17.0458 41.3233 18.8506 43.9311 18.8506C45.8702 18.8506 47.1407 17.8479 47.475 15.9763H50.5508C50.4171 19.4523 47.7425 21.725 43.7974 21.725ZM66.2645 21.2571L60.7146 5.88247H57.0369L51.5539 21.2571H54.8972L55.9002 18.1153H61.8513L62.9212 21.2571H66.2645ZM61.0489 15.5083H56.7695L58.9092 8.9574L61.0489 15.5083ZM67.8024 5.88247H75.0239C78.2335 5.88247 79.8382 7.28624 79.8382 9.75955C79.8382 11.297 79.2364 12.3666 77.966 12.9013C79.5708 13.5698 80.3732 14.773 80.3732 16.511C80.3732 19.4523 78.4341 21.1903 74.7564 21.1903H67.7355V5.88247H67.8024ZM74.489 11.8318C76.0269 11.8318 76.7624 11.3639 76.7624 10.1606C76.7624 8.9574 76.0269 8.55632 74.489 8.55632H70.8782V11.8318H74.489ZM74.6227 18.5164C76.3612 18.5164 77.1636 17.9148 77.1636 16.511C77.1636 15.0404 76.3612 14.5056 74.6227 14.5056H70.8782V18.5164H74.6227ZM82.9809 5.88247H86.1236V21.2571H82.9809V5.88247Z" fill="#368729"/>
</g>
<path d="M110.677 13.8503C110.677 15.7401 110.138 17.1876 109.06 18.1927C107.987 19.1978 106.434 19.7004 104.403 19.7004H101.152V8.22006H104.757C106.631 8.22006 108.086 8.71477 109.123 9.70418C110.159 10.6936 110.677 12.0756 110.677 13.8503ZM108.149 13.9131C108.149 11.4474 107.06 10.2146 104.882 10.2146H103.587V17.6901H104.631C106.976 17.6901 108.149 16.4311 108.149 13.9131Z" fill="black"/>
<path d="M112.766 8.65195C112.766 7.87194 113.201 7.48193 114.07 7.48193C114.939 7.48193 115.373 7.87194 115.373 8.65195C115.373 9.02363 115.263 9.31417 115.043 9.52357C114.829 9.72774 114.504 9.82982 114.07 9.82982C113.201 9.82982 112.766 9.4372 112.766 8.65195ZM115.263 19.7004H112.868V10.9213H115.263V19.7004Z" fill="black"/>
<path d="M125.424 10.9213V12.1384L124.05 12.4918C124.301 12.8844 124.427 13.3242 124.427 13.811C124.427 14.7533 124.097 15.4888 123.438 16.0176C122.783 16.5411 121.872 16.8028 120.705 16.8028L120.273 16.7792L119.92 16.74C119.674 16.9284 119.551 17.1378 119.551 17.3682C119.551 17.7137 119.99 17.8864 120.87 17.8864H122.362C123.325 17.8864 124.058 18.0932 124.561 18.5068C125.068 18.9204 125.322 19.5276 125.322 20.3286C125.322 21.3546 124.893 22.1503 124.034 22.7157C123.181 23.2811 121.954 23.5638 120.352 23.5638C119.127 23.5638 118.19 23.3491 117.54 22.9199C116.897 22.4958 116.575 21.8991 116.575 21.1295C116.575 20.6008 116.739 20.1584 117.069 19.8024C117.399 19.4465 117.883 19.1926 118.522 19.0408C118.276 18.9361 118.061 18.7659 117.878 18.5303C117.695 18.2895 117.603 18.0356 117.603 17.7687C117.603 17.4336 117.7 17.1562 117.894 16.9363C118.087 16.7112 118.368 16.4913 118.734 16.2767C118.273 16.0778 117.907 15.7584 117.635 15.3187C117.368 14.879 117.234 14.3607 117.234 13.7639C117.234 12.8059 117.546 12.0652 118.169 11.5417C118.792 11.0182 119.682 10.7564 120.838 10.7564C121.085 10.7564 121.375 10.78 121.71 10.8271C122.05 10.869 122.268 10.9004 122.362 10.9213H125.424ZM118.648 20.9411C118.648 21.2709 118.805 21.53 119.119 21.7184C119.438 21.9069 119.883 22.0011 120.454 22.0011C121.312 22.0011 121.985 21.8833 122.472 21.6478C122.959 21.4122 123.202 21.0902 123.202 20.6819C123.202 20.3521 123.058 20.1244 122.77 19.9988C122.482 19.8731 122.037 19.8103 121.435 19.8103H120.195C119.755 19.8103 119.386 19.9124 119.087 20.1165C118.794 20.3259 118.648 20.6008 118.648 20.9411ZM119.519 13.7953C119.519 14.2717 119.627 14.6486 119.841 14.9261C120.061 15.2035 120.393 15.3422 120.838 15.3422C121.289 15.3422 121.618 15.2035 121.828 14.9261C122.037 14.6486 122.142 14.2717 122.142 13.7953C122.142 12.7378 121.707 12.2091 120.838 12.2091C119.959 12.2091 119.519 12.7378 119.519 13.7953Z" fill="black"/>
<path d="M126.775 8.65195C126.775 7.87194 127.209 7.48193 128.078 7.48193C128.947 7.48193 129.382 7.87194 129.382 8.65195C129.382 9.02363 129.272 9.31417 129.052 9.52357C128.838 9.72774 128.513 9.82982 128.078 9.82982C127.209 9.82982 126.775 9.4372 126.775 8.65195ZM129.272 19.7004H126.877V10.9213H129.272V19.7004Z" fill="black"/>
<path d="M135.491 17.9493C135.91 17.9493 136.413 17.8577 136.999 17.6744V19.4569C136.402 19.7239 135.669 19.8574 134.8 19.8574C133.842 19.8574 133.143 19.6166 132.704 19.135C132.269 18.6481 132.052 17.9205 132.052 16.952V12.7195H130.905V11.7066L132.225 10.9056L132.916 9.05243H134.447V10.9213H136.905V12.7195H134.447V16.952C134.447 17.2923 134.541 17.5436 134.729 17.7058C134.923 17.8681 135.177 17.9493 135.491 17.9493Z" fill="black"/>
<path d="M144.357 19.7004L143.893 18.5068H143.83C143.427 19.0146 143.011 19.3679 142.582 19.5669C142.158 19.7606 141.603 19.8574 140.917 19.8574C140.074 19.8574 139.41 19.6166 138.923 19.135C138.441 18.6534 138.2 17.9676 138.2 17.0776C138.2 16.1458 138.525 15.46 139.174 15.0203C139.828 14.5753 140.813 14.3293 142.126 14.2822L143.65 14.2351V13.8503C143.65 12.9603 143.194 12.5154 142.284 12.5154C141.582 12.5154 140.758 12.7274 139.81 13.1514L139.017 11.5338C140.027 11.0051 141.148 10.7407 142.378 10.7407C143.556 10.7407 144.459 10.9972 145.087 11.5102C145.715 12.0233 146.029 12.8033 146.029 13.8503V19.7004H144.357ZM143.65 15.6328L142.723 15.6642C142.027 15.6851 141.509 15.8108 141.168 16.0411C140.828 16.2715 140.658 16.6222 140.658 17.0933C140.658 17.7687 141.045 18.1063 141.82 18.1063C142.375 18.1063 142.818 17.9466 143.147 17.6273C143.482 17.308 143.65 16.8839 143.65 16.3552V15.6328Z" fill="black"/>
<path d="M150.898 19.7004H148.503V7.48193H150.898V19.7004Z" fill="black"/>
<path d="M157.784 19.7004V8.22006H160.219V17.6901H164.875V19.7004H157.784Z" fill="black"/>
<path d="M166.587 8.65195C166.587 7.87194 167.021 7.48193 167.89 7.48193C168.759 7.48193 169.194 7.87194 169.194 8.65195C169.194 9.02363 169.084 9.31417 168.864 9.52357C168.649 9.72774 168.325 9.82982 167.89 9.82982C167.021 9.82982 166.587 9.4372 166.587 8.65195ZM169.084 19.7004H166.689V10.9213H169.084V19.7004Z" fill="black"/>
<path d="M176.489 10.7564C177.525 10.7564 178.337 11.1621 178.923 11.9735C179.509 12.7797 179.803 13.8869 179.803 15.2951C179.803 16.7452 179.499 17.8681 178.892 18.6638C178.29 19.4596 177.468 19.8574 176.426 19.8574C175.395 19.8574 174.586 19.4831 174 18.7345H173.835L173.434 19.7004H171.605V7.48193H174V10.3245C174 10.6857 173.968 11.2642 173.905 12.0599H174C174.56 11.1909 175.39 10.7564 176.489 10.7564ZM175.719 12.6724C175.128 12.6724 174.696 12.8556 174.424 13.2221C174.151 13.5833 174.01 14.1827 174 15.0203V15.2794C174 16.2217 174.138 16.897 174.416 17.3054C174.699 17.7137 175.143 17.9179 175.751 17.9179C176.243 17.9179 176.633 17.6928 176.921 17.2425C177.214 16.7871 177.36 16.1275 177.36 15.2637C177.36 14.4 177.214 13.7534 176.921 13.3242C176.628 12.8897 176.227 12.6724 175.719 12.6724Z" fill="black"/>
<path d="M186.681 10.7564C187.006 10.7564 187.276 10.78 187.49 10.8271L187.31 13.0729C187.116 13.0205 186.88 12.9944 186.603 12.9944C185.839 12.9944 185.242 13.1907 184.812 13.5833C184.388 13.9759 184.176 14.5256 184.176 15.2323V19.7004H181.781V10.9213H183.595L183.949 12.3976H184.066C184.339 11.9055 184.705 11.5102 185.166 11.2119C185.632 10.9082 186.137 10.7564 186.681 10.7564Z" fill="black"/>
<path d="M194.659 19.7004L194.196 18.5068H194.133C193.73 19.0146 193.314 19.3679 192.885 19.5669C192.461 19.7606 191.906 19.8574 191.22 19.8574C190.377 19.8574 189.712 19.6166 189.226 19.135C188.744 18.6534 188.503 17.9676 188.503 17.0776C188.503 16.1458 188.828 15.46 189.477 15.0203C190.131 14.5753 191.115 14.3293 192.429 14.2822L193.953 14.2351V13.8503C193.953 12.9603 193.497 12.5154 192.586 12.5154C191.885 12.5154 191.06 12.7274 190.113 13.1514L189.32 11.5338C190.33 11.0051 191.45 10.7407 192.681 10.7407C193.859 10.7407 194.762 10.9972 195.39 11.5102C196.018 12.0233 196.332 12.8033 196.332 13.8503V19.7004H194.659ZM193.953 15.6328L193.026 15.6642C192.33 15.6851 191.812 15.8108 191.471 16.0411C191.131 16.2715 190.961 16.6222 190.961 17.0933C190.961 17.7687 191.348 18.1063 192.123 18.1063C192.678 18.1063 193.12 17.9466 193.45 17.6273C193.785 17.308 193.953 16.8839 193.953 16.3552V15.6328Z" fill="black"/>
<path d="M203.705 10.7564C204.03 10.7564 204.3 10.78 204.514 10.8271L204.334 13.0729C204.14 13.0205 203.904 12.9944 203.627 12.9944C202.863 12.9944 202.266 13.1907 201.837 13.5833C201.413 13.9759 201.201 14.5256 201.201 15.2323V19.7004H198.806V10.9213H200.619L200.973 12.3976H201.091C201.363 11.9055 201.729 11.5102 202.19 11.2119C202.656 10.9082 203.161 10.7564 203.705 10.7564Z" fill="black"/>
<path d="M204.852 10.9213H207.475L209.132 15.8605C209.273 16.2898 209.37 16.7976 209.422 17.3839H209.469C209.527 16.8447 209.639 16.3369 209.807 15.8605L211.432 10.9213H214L210.286 20.8233C209.946 21.7394 209.459 22.4252 208.825 22.8806C208.197 23.3361 207.462 23.5638 206.619 23.5638C206.205 23.5638 205.799 23.5193 205.402 23.4303V21.53C205.69 21.598 206.004 21.6321 206.344 21.6321C206.768 21.6321 207.137 21.5012 207.451 21.2394C207.77 20.9829 208.019 20.5929 208.197 20.0694L208.338 19.6375L204.852 10.9213Z" fill="black"/>
<defs>
<clipPath id="clip0_289:1039">
<rect width="94.8829" height="27.7412" fill="white"/>
</clipPath>
</defs>
</svg>
